Coordinates
version=1
nRows=15
nColumns=42
inDegrees=yes

Units are S.I. units (second, meters, Newtons, ...)
If the header above contains a line with 'inDegrees', this indicates whether rotational values are in degrees (yes) or radians (no).

endheader
time	pelvis_tilt	pelvis_list	pelvis_rotation	pelvis_tx	pelvis_ty	pelvis_tz	hip_flexion_r	hip_adduction_r	hip_rotation_r	knee_angle_r	knee_adduction_r	knee_angle_r_beta	ankle_angle_r	subtalar_angle_r	mtp_angle_r	hip_flexion_l	hip_adduction_l	hip_rotation_l	knee_angle_l	knee_adduction_l	knee_angle_l_beta	ankle_angle_l	subtalar_angle_l	mtp_angle_l	lumbar_extension	lumbar_bending	lumbar_rotation	arm_flex_r	arm_add_r	arm_rot_r	elbow_flex_r	pro_sup_r	wrist_flex_r	wrist_dev_r	arm_flex_l	arm_add_l	arm_rot_l	elbow_flex_l	pro_sup_l	wrist_flex_l	wrist_dev_l
      1.30000000	     10.92792281	      7.30260045	     18.98267686	      0.15670614	      0.90447459	      0.48061577	     -9.57720442	     -0.83495602	    -20.87525971	     20.01716987	      2.93593441	      0.34936552	     20.78318350	     -1.20188052	     -7.95759664	     25.11278052	     -7.96578623	      2.15024181	     27.10775910	      5.58300469	      0.47311965	      7.18094320	      8.25237289	     -7.95759664	    -24.84576866	     -5.78836904	      0.20958452	    -12.33586169	    -22.75556995	    -29.58652728	     64.55515033	     90.00000001	      0.00000000	      0.00000000	     -0.79247922	    -21.53722986	     15.15277069	     85.95647479	     90.00000001	      0.00000000	      0.00000000
      1.31000000	     11.38472125	      7.24837681	     18.65968986	      0.15920281	      0.90418449	      0.48057334	    -10.15954465	     -0.60817792	    -20.40531532	     20.05541785	      2.97551697	      0.35003307	     20.81928454	     -1.87193122	     -7.92691536	     25.48614446	     -7.96803783	      1.40007159	     27.52794633	      5.53261418	      0.48045330	      7.33666914	      9.15802978	     -7.92691536	    -25.08146449	     -5.65531389	      0.50976308	    -12.19776450	    -22.77394520	    -29.24491931	     65.06861402	     90.00000001	      0.00000000	      0.00000000	     -1.02330014	    -21.61367527	     14.89527113	     85.90717343	     90.00000001	      0.00000000	      0.00000000
      1.32000000	     11.55662645	      7.19327137	     18.46682540	      0.16151778	      0.90363549	      0.48028358	    -10.36603401	     -0.53107884	    -20.26908396	     20.29818167	      2.95704887	      0.35427010	     20.72929583	     -1.75728762	     -7.92383181	     25.94555249	     -7.72686011	      1.34067402	     27.55178655	      5.64031606	      0.48086939	      7.30212385	      9.16574524	     -7.92383181	    -25.04492489	     -5.59676077	      0.79479241	    -12.05340083	    -22.73880897	    -29.14127292	     65.15248517	     90.00000001	      0.00000000	      0.00000000	     -1.12050675	    -21.66446001	     14.84159254	     85.85080744	     90.00000001	      0.00000000	      0.00000000
      1.33000000	     12.07901350	      7.19701308	     18.10821404	      0.16418617	      0.90341897	      0.48002482	    -11.10337994	     -0.43046826	    -20.04072365	     20.30224510	      3.06083354	      0.35434102	     21.35356652	     -1.86342650	     -7.91458851	     26.13460293	     -7.57967016	      0.82402242	     28.11014970	      5.53730404	      0.49061467	      7.17509690	      9.12538442	     -7.91458851	    -25.37491219	     -5.45949884	      1.01475748	    -12.13423326	    -22.80993836	    -28.47556776	     66.37665969	     90.00000001	      0.00000000	      0.00000000	     -1.57189974	    -21.68629402	     14.32521485	     85.93696972	     90.00000001	      0.00000000	      0.00000000
      1.34000000	     12.26955455	      7.11956253	     17.80727741	      0.16680975	      0.90295192	      0.47976470	    -11.38052489	     -0.36148166	    -19.94942753	     20.46375449	      3.05554431	      0.35715989	     21.34190738	     -1.80472472	     -7.91203609	     26.42850602	     -7.35459829	      0.82634375	     28.18956801	      5.60305773	      0.49200078	      7.12946595	      9.15783475	     -7.91203609	    -25.32299613	     -5.40626237	      1.31880279	    -11.94729384	    -22.70918486	    -28.30422562	     66.58446658	     90.00000001	      0.00000000	      0.00000000	     -1.82620663	    -21.75704916	     14.27437577	     85.82991459	     90.00000001	      0.00000000	      0.00000000
      1.35000000	     12.73890413	      7.15720750	     17.52499706	      0.16950194	      0.90285887	      0.47929776	    -12.18193668	     -0.31640413	    -19.67675401	     20.28592696	      3.22090748	      0.35405622	     21.78060629	     -1.78766894	     -7.90463161	     26.38290563	     -7.07724666	      0.52086422	     28.41958150	      5.53622793	      0.49601527	      7.00723916	      9.29277443	     -7.90463161	    -25.63891078	     -5.30448015	      1.43732075	    -12.03840520	    -22.80674191	    -27.51559680	     67.69847298	     90.00000001	      0.00000000	      0.00000000	     -2.25973721	    -21.69442435	     13.76073563	     85.94163630	     90.00000001	      0.00000000	      0.00000000
      1.36000000	     12.88503062	      7.05543560	     17.19291216	      0.17223744	      0.90239127	      0.47897754	    -12.42577647	     -0.25647061	    -19.59328662	     20.42128767	      3.21044732	      0.35641871	     21.75948035	     -1.72247960	     -7.90219358	     26.57990251	     -6.84577525	      0.57494133	     28.47822818	      5.58023348	      0.49703885	      6.95514119	      9.33493291	     -7.90219358	    -25.53705097	     -5.24315866	      1.73808177	    -11.84644714	    -22.67718306	    -27.33387696	     67.90306125	     90.00000001	      0.00000000	      0.00000000	     -2.55808245	    -21.72971692	     13.73721490	     85.83156646	     90.00000001	      0.00000000	      0.00000000
      1.37000000	     13.31224668	      7.13165754	     16.91034132	      0.17504313	      0.90240384	      0.47846138	    -13.25282059	     -0.25443888	    -19.36384210	     20.13646283	      3.34416366	      0.35144758	     22.16577681	     -1.64392481	     -7.89660521	     26.25841953	     -6.45766352	      0.58563650	     28.35753091	      5.55855095	      0.49493228	      6.77415470	      9.44107629	     -7.89660521	    -25.83419261	     -5.20379997	      1.78652140	    -11.88554376	    -22.72006258	    -26.56541685	     68.98529662	     90.00000001	      0.00000000	      0.00000000	     -3.02550530	    -21.67746926	     13.28292921	     85.91219883	     90.00000001	      0.00000000	      0.00000000
      1.38000000	     13.57642850	      7.13105861	     16.55999855	      0.17796655	      0.90226395	      0.47803836	    -13.78844338	     -0.25466733	    -19.19178646	     20.02395651	      3.38843508	      0.34948397	     22.27257520	     -1.51169697	     -7.89130644	     26.01517174	     -6.12026451	      0.67925006	     28.17173513	      5.56186351	      0.49168953	      6.64361381	      9.48059134	     -7.89130644	    -25.90066673	     -5.19322486	      1.95137751	    -11.75206833	    -22.64120048	    -26.03593679	     69.56164001	     90.00000001	      0.00000000	      0.00000000	     -3.45414519	    -21.64979519	     13.07575533	     85.86818846	     90.00000001	      0.00000000	      0.00000000
      1.39000000	     13.67208453	      6.98277870	     16.21587827	      0.18095698	      0.90177834	      0.47762554	    -14.00802566	     -0.18366402	    -19.13580474	     20.11114020	      3.39060627	      0.35100561	     22.27276276	     -1.46094391	     -7.88972027	     26.03351980	     -5.89814950	      0.79737943	     28.17307729	      5.56258070	      0.49171296	      6.58091106	      9.50192137	     -7.88972027	    -25.72705829	     -5.10661217	      2.25286307	    -11.59170451	    -22.46848932	    -25.84932092	     69.76731657	     90.00000001	      0.00000000	      0.00000000	     -3.81291326	    -21.60673967	     13.10216581	     85.77721249	     90.00000001	      0.00000000	      0.00000000
      1.40000000	     14.01227660	      7.05900412	     15.83429060	      0.18398407	      0.90182698	      0.47715398	    -14.72868622	     -0.24021754	    -18.84129933	     19.84906815	      3.46780096	      0.34643159	     22.61093952	     -1.24661712	     -7.88391877	     25.35283722	     -5.47879073	      1.09820934	     27.57340111	      5.58652946	      0.48124664	      6.30200861	      9.41262295	     -7.88391877	    -25.92973557	     -5.14046824	      2.33683984	    -11.64400740	    -22.49927168	    -24.99906563	     70.85216470	     90.00000001	      0.00000000	      0.00000000	     -4.32735836	    -21.49826130	     12.69880829	     85.82871319	     90.00000001	      0.00000000	      0.00000000
      1.41000000	     14.29886814	      7.10817988	     15.42688651	      0.18713289	      0.90178868	      0.47669216	    -15.34450120	     -0.37974997	    -18.72486004	     19.72760750	      3.62854521	      0.34431170	     22.69100289	     -0.98116542	     -7.87381591	     24.70994269	     -5.09375462	      1.34691382	     27.08097463	      5.60216050	      0.47265217	      6.03755776	      9.03293459	     -7.87381591	    -26.03162686	     -5.19803618	      2.44005677	    -11.42111042	    -22.42208977	    -24.37422054	     71.32889440	     90.00000001	      0.00000000	      0.00000000	     -4.80444707	    -21.44851405	     12.51635662	     85.77665387	     90.00000001	      0.00000000	      0.00000000
      1.42000000	     14.32249962	      6.95789891	     15.10867105	      0.19035611	      0.90124506	      0.47624553	    -15.51839081	     -0.22986536	    -18.53945728	     19.72382168	      3.45973596	      0.34424563	     22.85849885	     -0.88955416	     -7.87005821	     24.43552721	     -4.82045099	      1.58496825	     26.70236752	      5.53052343	      0.46604423	      5.92942593	      8.99968676	     -7.87005821	    -25.79983591	     -5.12202788	      2.62467528	    -11.36134445	    -22.25002294	    -24.01912513	     71.91112062	     90.00000001	      0.00000000	      0.00000000	     -5.26416316	    -21.34991119	     12.49875568	     85.72555428	     90.00000001	      0.00000000	      0.00000000
      1.43000000	     14.35946557	      6.77081776	     14.77462067	      0.19362346	      0.90066727	      0.47573596	    -15.70072568	     -0.10615051	    -18.37026672	     19.74674368	      3.40793041	      0.34464569	     23.00270600	     -0.78933210	     -7.86736291	     24.08569185	     -4.62291710	      1.77575230	     26.30587665	      5.47772942	      0.45912416	      5.83781575	      8.96724084	     -7.86736291	    -25.57588735	     -4.98369337	      2.77733394	    -11.22547537	    -22.09176258	    -23.63532600	     72.50770193	     90.00000001	      0.00000000	      0.00000000	     -5.75300808	    -21.27965280	     12.50314357	     85.61921898	     90.00000001	      0.00000000	      0.00000000
      1.44000000	     14.53533025	      6.76170520	     14.35973811	      0.19704349	      0.90041543	      0.47526746	    -16.15338022	     -0.16994576	    -18.13557466	     19.66360486	      3.44461222	      0.34319465	     23.27563832	     -0.56734003	     -7.86125102	     23.25454653	     -4.30955987	      2.19637446	     25.52542997	      5.55205855	      0.44550280	      5.60977947	      8.75675706	     -7.86125102	    -25.56264532	     -5.02779296	      2.96300405	    -11.30362211	    -22.07489893	    -22.90222951	     73.28978331	     90.00000001	      0.00000000	      0.00000000	     -6.21137325	    -21.08175922	     12.34253644	     85.61922139	     90.00000001	      0.00000000	      0.00000000
